<svg xmlns:inkscape="http://www.inkscape.org/namespaces/inkscape" xmlns:sodipodi="http://sodipodi.sourceforge.net/DTD/sodipodi-0.dtd" xmlns="http://www.w3.org/2000/svg" xmlns:svg="http://www.w3.org/2000/svg" width="135.03076mm" height="73.072655mm" viewBox="0 0 135.03076 73.072655" id="svg1" xml:space="preserve" inkscape:version="1.3 (0e150ed6c4, 2023-07-21)" sodipodi:docname="rbt-blue-stroke.svg"><defs id="defs1"></defs><g inkscape:label="Layer 1" inkscape:groupmode="layer" id="layer1" transform="translate(-41.096271,-126.1329)"><path style="fill:#031b52;fill-opacity:1;stroke:#ffffff;stroke-width:0.5;stroke-dasharray:none;stroke-opacity:1" d="m 89.5817,198.68111 c -2.102024,-0.50955 -3.700496,-1.71836 -4.213461,-3.18635 -0.179698,-0.51425 -0.239258,-1.93491 -0.239452,-5.71159 -2.42e-4,-4.72162 0.02206,-5.07532 0.366983,-5.82084 0.990721,-2.14133 3.402236,-3.22034 7.212837,-3.22731 1.06715,-0.002 2.41653,0.0969 2.99861,0.21969 2.21221,0.46662 4.02852,1.72947 4.531653,3.15079 0.33628,0.94998 0.32719,10.432 -0.0109,11.38926 -0.529833,1.50005 -2.118283,2.68105 -4.296873,3.1947 -1.3946,0.3288 -4.977959,0.32409 -6.349378,-0.008 z m 4.008847,-2.92914 c 0.10831,-0.10141 0.19611,-2.33762 0.22749,-5.79401 0.0496,-5.46539 0.0406,-5.63929 -0.30868,-5.98862 -0.42186,-0.42187 -0.86351,-0.45799 -1.340301,-0.10961 -0.323502,0.23636 -0.345352,0.5405 -0.396001,5.51215 -0.02948,2.89409 -0.0053,5.52413 0.05383,5.84453 0.152511,0.82694 1.134112,1.12502 1.763662,0.53556 z m 14.111113,3.03357 c -2.13373,-0.4598 -3.67837,-1.41877 -4.37074,-2.71353 -0.37316,-0.69781 -0.39444,-0.96498 -0.4483,-5.62766 -0.0648,-5.60797 0.0385,-6.4411 0.9271,-7.47924 1.27961,-1.49494 3.47111,-2.23094 6.62597,-2.22529 3.81422,0.007 6.23991,0.98461 7.28378,2.93602 0.37725,0.70523 0.38914,0.89457 0.38914,6.19552 v 5.46806 l -0.44097,0.78551 c -0.56272,1.00238 -1.6148,1.80159 -3.02922,2.30114 -0.9134,0.3226 -1.5801,0.40478 -3.67356,0.45282 -1.4067,0.0323 -2.87514,-0.01 -3.2632,-0.0934 z m 3.57188,-3.04834 c 0.1682,-0.13456 0.22048,-1.52776 0.22048,-5.87484 0,-4.94521 -0.0366,-5.73508 -0.27718,-5.97562 -0.35134,-0.35134 -0.77195,-0.3522 -1.27107,-0.003 -0.3914,0.27415 -0.39202,0.2836 -0.38932,5.95313 0.001,3.12319 0.061,5.76585 0.13229,5.87257 0.286,0.42823 1.06689,0.44171 1.5848,0.0274 z m 52.76302,2.81098 c -1.50433,-0.51278 -2.33732,-1.082 -2.97332,-2.03179 -0.68636,-1.025 -0.75106,-1.724 -0.68073,-7.35476 0.0569,-4.55481 0.0769,-4.79377 0.46763,-5.58705 0.99824,-2.02666 4.6969,-3.2342 8.56359,-2.79584 1.89149,0.21443 2.73225,0.43039 3.81641,0.98028 0.96911,0.49154 1.63826,1.09594 2.01069,1.81615 0.27205,0.52608 0.62452,2.44001 0.63165,3.42987 l 0.003,0.48507 h -3.33436 -3.33436 l -0.0611,-1.6901 c -0.0658,-1.81878 -0.2593,-2.19045 -1.14057,-2.19045 -0.93512,0 -0.94902,0.0916 -0.94902,6.2528 0,6.26508 -0.0196,6.15321 1.07613,6.15321 0.92385,0 1.12156,-0.39194 1.18936,-2.35779 l 0.0606,-1.75795 h -0.72208 -0.72209 v -1.32291 -1.32292 h 3.96875 3.96875 v 4.67431 4.6743 h -2.11213 -2.11214 l -0.27364,-0.52916 c -0.32172,-0.62213 -0.45402,-0.64925 -0.8786,-0.18009 -0.97238,1.07446 -4.25585,1.40714 -6.4629,0.65482 z m -96.286983,-8.67682 v -8.73125 h 5.082882 c 6.212674,0 7.417781,0.18107 8.648521,1.29945 0.84237,0.76547 1.150609,1.66268 1.159441,3.37486 0.0094,1.81308 -0.211825,2.42849 -1.083738,3.01539 -0.312724,0.2105 -0.947724,0.44031 -1.411111,0.51068 l -0.842522,0.12796 1.062,0.32773 c 0.717246,0.22135 1.261223,0.53325 1.675695,0.96082 l 0.613694,0.63308 0.06221,3.60627 0.06221,3.60626 h -3.091914 -3.091914 l -0.0571,-3.61003 c -0.0641,-4.05257 -0.06388,-4.05187 -1.335918,-4.25364 l -0.749653,-0.11892 v 3.9913 3.99129 h -3.351389 -3.351389 z m 8.466667,-2.30753 c 0.188594,-0.18726 0.264583,-0.64493 0.264583,-1.59354 0,-1.5353 -0.219444,-1.83157 -1.35663,-1.83157 h -0.671842 v 1.96282 1.96283 l 0.749653,-0.11892 c 0.412309,-0.0654 0.868715,-0.23713 1.014236,-0.38162 z m 44.450006,2.30753 v -8.73125 h 5.64444 5.64445 v 1.6757 1.67569 h -2.29306 -2.29305 v 1.67569 1.6757 h 2.02847 2.02847 v 1.67569 1.6757 h -2.02847 -2.02847 v 3.70417 3.70416 h -3.35139 -3.35139 z m 12.87639,0 v -8.73125 h 3.35139 3.35139 v 8.73125 8.73125 h -3.35139 -3.35139 z m 9.34861,-0.004 v -8.73562 l 2.86138,0.0485 2.86138,0.0485 1.76883,3.75942 1.76883,3.75942 0.0475,-3.80352 0.0475,-3.80352 h 2.81878 2.81879 v 8.73125 8.73125 h -2.95648 -2.95647 l -1.67374,-3.88574 -1.67373,-3.88573 -0.0475,3.88573 -0.0475,3.88574 h -2.81884 -2.81885 z M 41.335313,189.22842 c 0.03443,-0.0888 21.613271,-24.71945 24.069768,-27.47389 l 0.565922,-0.63456 0.0073,1.41196 0.0073,1.41196 -10.224076,11.64082 c -5.623241,6.40245 -10.226991,11.70035 -10.230556,11.77311 -0.0036,0.0728 4.597269,0.13229 10.224075,0.13229 h 10.230557 v 0.87959 0.87958 l -12.347249,0.0465 c -6.790986,0.0256 -12.327393,-0.005 -12.303126,-0.0673 z m 91.501767,-18.79345 -7.67292,-8.75613 -0.043,-1.51416 c -0.0351,-1.23474 -0.003,-1.46238 0.17639,-1.23359 0.12068,0.1543 4.12864,4.73524 8.90658,10.17985 4.77793,5.44462 8.68715,9.94196 8.68715,9.9941 0,0.0521 -0.53578,0.0928 -1.19063,0.0904 l -1.19062,-0.004 z m -65.087503,-9.3362 v -15.808 l 6.129514,0.0886 c 6.460561,0.0934 7.640479,0.21477 9.054596,0.93136 1.062307,0.53831 2.17396,1.80967 2.616458,2.99235 0.739188,1.97566 0.897051,5.63039 0.354229,8.20091 -0.16192,0.76677 -0.358941,1.11905 -0.939858,1.68052 -0.712024,0.68818 -1.739389,1.1417 -2.586306,1.1417 -0.554921,0 -0.266072,0.22464 0.788391,0.61314 1.100516,0.40547 2.089008,1.29741 2.607242,2.35259 0.396981,0.80829 0.407394,0.9685 0.46933,7.22073 l 0.06334,6.3941 H 82.407906 78.5093 v -6.35567 c 0,-7.77699 0.03522,-7.62872 -1.852084,-7.79657 l -0.529167,-0.0471 -0.0461,7.09966 -0.0461,7.09965 h -4.143138 -4.143138 z m 10.106708,-3.63003 c 0.174418,-0.0894 0.392699,-0.36136 0.485069,-0.60431 0.233823,-0.615 0.212004,-4.71519 -0.02789,-5.24171 -0.237353,-0.52093 -0.846369,-0.8215 -1.664543,-0.8215 h -0.609062 v 3.41019 c 0,1.8756 0.04678,3.45696 0.103947,3.51413 0.131956,0.13196 1.294112,-0.0423 1.712483,-0.2568 z m 10.883571,3.6477 v -15.8172 l 6.217711,0.082 c 6.466533,0.0853 7.261113,0.16864 8.863543,0.92958 0.94231,0.44748 2.21806,1.74791 2.67475,2.72649 0.20373,0.43657 0.47201,1.27 0.59616,1.85209 0.29122,1.36532 0.306,5.07172 0.0241,6.0333 -0.39277,1.33961 -1.36425,2.16891 -3.17422,2.70967 l -0.76118,0.22742 1.03931,0.37633 c 1.58331,0.5733 2.2955,1.0915 2.86105,2.08173 0.75791,1.32706 0.93906,2.7946 0.84041,6.80843 -0.0899,3.65697 -0.26249,4.61977 -1.02875,5.73806 -0.49835,0.72729 -1.30779,1.28393 -2.39589,1.64762 -0.71586,0.23927 -2.04361,0.29574 -8.304523,0.35323 l -7.452431,0.0684 z m 10.086811,10.11589 c 0.28443,-0.10791 0.54866,-0.39495 0.66146,-0.71853 0.23631,-0.67789 0.2482,-6.3017 0.0146,-6.91606 -0.19124,-0.50302 -0.59701,-0.70276 -1.72295,-0.84811 l -0.74965,-0.0968 v 4.48912 4.48913 l 0.66145,-0.10953 c 0.36381,-0.0602 0.87459,-0.1904 1.13508,-0.28924 z m 0.40833,-13.92882 c 0.32219,-0.30881 0.35278,-0.56844 0.35278,-2.99427 v -2.65614 l -0.49491,-0.42594 c -0.36274,-0.31219 -0.70425,-0.42594 -1.27882,-0.42594 h -0.78391 v 3.50189 3.50188 l 0.92604,-0.0817 c 0.58412,-0.0515 1.0563,-0.20653 1.27882,-0.41981 z m 15.745023,6.99148 0.0464,-12.61182 h -2.47176 -2.47176 v -3.175 -3.175 h 8.99584 8.99583 v 3.175 3.175 h -2.46944 -2.46945 v 12.6118 12.61181 l -4.10104,2e-5 -4.10104,2e-5 z M 88.916301,134.93658 c 4.088236,-4.65937 7.497526,-8.51137 7.576196,-8.55998 0.12152,-0.0751 14.804513,16.47463 14.972133,16.87563 0.0323,0.0774 -0.4836,0.14057 -1.14653,0.14046 l -1.20533,-2e-4 -6.25907,-7.14227 -6.259083,-7.14227 -0.38086,0.3956 c -0.20947,0.21757 -3.02257,3.41184 -6.251323,7.09837 l -5.870462,6.70277 -1.304418,0.0517 -1.304418,0.0517 z" id="path1"></path></g></svg>