<svg xmlns="http://www.w3.org/2000/svg" xmlns:svg="http://www.w3.org/2000/svg" xmlns:sodipodi="http://sodipodi.sourceforge.net/DTD/sodipodi-0.dtd" xmlns:inkscape="http://www.inkscape.org/namespaces/inkscape" id="svg1" viewBox="0 0 381.374176 205.7348785"><defs><style>      .st0 {        fill: #fff;      }    </style></defs><g id="layer1" inkscape:groupmode="layer" inkscape:label="Layer 1"><path id="path1" class="st0" d="M136.7618786,204.9583289c-5.9585039-1.4443993-10.4895855-4.8709224-11.9436735-9.0321886-.509372-1.4577213-.6782111-5.4847726-.6787517-16.1903432-.0006921-13.3841151.0625226-14.3867256,1.0402625-16.5000366,2.8083475-6.0699027,9.6441357-9.1285136,20.4458366-9.1482803,3.0249815-.0056662,6.8499968.2746582,8.5000005.6227604,6.2708357,1.3226846,11.4194224,4.902454,12.8456337,8.9313652.9532369,2.6928613.927458,29.5710413-.0309045,32.2845345-1.5018829,4.252098-6.0045903,7.5998137-12.1801174,9.0558481-3.9531964.9320212-14.1107482.9186992-17.9982429-.0226647l-.0000433-.0009948ZM148.1255475,196.6552605c.3070116-.2874612.5559125-6.6263126.6448628-16.4239541.1405947-15.4924519.1150969-15.9854093-.8749918-16.9756061-1.1958228-1.1958661-2.4477451-1.2982465-3.7992797-.3106882-.9170123.669993-.978951,1.5321169-1.1225302,15.6249799-.0835653,8.2037157-.0150305,15.6589337.1525975,16.5671656.4323163,2.3440671,3.2147984,3.1890195,4.9993629,1.5181028h-.0000216ZM188.1255549,205.2543542c-6.0483626-1.3033504-10.4268682-4.0217312-12.3895064-7.6918999-1.05778-1.978058-1.1180967-2.7353793-1.2707807-15.9524071-.183675-15.8966104.109128-18.2582382,2.6280031-21.2009736,3.6272398-4.2376082,9.8393592-6.3239291,18.7822731-6.3079254,10.811952.0198532,17.6879224,2.791003,20.6469427,8.3225756,1.0693719,1.9990791,1.1030662,2.5358088,1.1030662,17.5621203v15.5000212l-1.2499975,2.2266345c-1.5951153,2.841393-4.5773842,5.1068689-8.5867665,6.5229373-2.5891616.9144604-4.4790262,1.1474224-10.4132435,1.2835837-3.9874962.0915671-8.1499951-.0283309-9.250012-.2647532l.0000216.0000865ZM198.2505587,196.6133913c.4767807-.3814505.624988-4.3306459.624988-16.6530666,0-14.0179051-.1037429-16.25691-.7857171-16.9387544-.9959279-.9959063-2.1882039-.9983717-3.6030396-.0085209-1.1094893.7771313-1.1112411.8039051-1.1035852,16.8749991.0028331,8.8531201.1729049,16.3441518.3750057,16.6466651.8107174,1.2138594,3.0242462,1.2520953,4.4923482.0776829v.0009948ZM347.8150043,204.5815065c-4.2642522-1.453569-6.6254908-3.0670885-8.4283298-5.7593876-1.9455748-2.9054943-2.1289686-4.8869261-1.9296143-20.8481568.1612914-12.9112705.2179964-13.5886165,1.3255826-15.8373101,2.8296714-5.7448545,13.3140448-9.1678308,24.2747232-7.9252079,5.3617171.607838,7.7449716,1.2200014,10.8181588,2.7787623,2.7471009,1.3933604,4.643886,3.106622,5.6996116,5.1481325.7711623,1.4912426,1.7703126,6.916542,1.7905119,9.7224673l.0085209,1.3750211h-18.9034903l-.173186-4.7908174c-.186508-5.1556153-.7350026-6.2091349-3.2330945-6.2091349-2.6507327,0-2.6901364.2596493-2.6901364,17.7244498,0,17.7592687-.0555804,17.442179,3.050436,17.442179,2.6187685,0,3.1792442-1.1110032,3.3714184-6.6834934l.1717587-4.9831646h-4.0937046v-7.4999852h22.4999987v26.5000168h-11.9743184l-.7756607-1.4999797c-.9119517-1.7635218-1.2870007-1.8403829-2.4905226-.5104749-2.7563571,3.0457214-12.0638094,3.9887289-18.3200471,1.8561703l.0013841-.0000865ZM74.8755497,179.9858009v-24.74999h14.4081576c17.610737,0,21.0267711.5132864,24.5154924,3.6834907,2.3878177,2.1698429,3.2615768,4.7130912,3.2865988,9.5665393.026644,5.1394386-.6004417,6.883929-3.0720194,8.5475791-.8864539.5966787-2.6864598,1.248116-3.9999964,1.4476l-2.3882503.3627218,3.0103835.9289935c2.033141.6274318,3.5751197,1.5115716,4.7500079,2.7235711l1.7396028,1.7945777.1763435,10.2225182.1763435,10.222475h-17.5289451l-.1618537-10.2331585q-.1817069-11.4875895-3.7868444-12.0575809l-2.1250109-.3371159v22.6278121h-18.9999884l-.0000216-24.7500332ZM98.8755498,173.4447837c.5345886-.530804.7499899-1.8281422.7499899-4.5171107,0-4.3520131-.6220467-5.1918616-3.8455607-5.1918616h-1.9044409v11.1278089l2.1250109-.3371159c1.1687463-.1853835,2.4624945-.6721989,2.8750008-1.081764v.0000433ZM224.8755557,179.9858009v-24.74999h31.9999929v9.5000158h-13.0000046v9.5000158h11.4999816v9.5000158h-11.5000032v20.9999757h-18.9999884l.0000216-24.7500332ZM261.3755743,179.9858009v-24.74999h19.0000316v49.4999799h-19.0000316v-24.74999ZM287.8755911,179.9744685v-24.7624036l8.1109807.1374589,8.1109807.1374589,5.0140042,10.6566079,5.0140042,10.6566079.1346474-10.7816098.1346474-10.7816098h15.9805217v49.4999799h-16.7611132l-4.7444499-11.0147016-4.7444499-11.0146584-.1346474,11.0146584-.1346474,11.0147016h-15.9808244l.000346-24.7624901ZM.0004622,178.1633249c.097601-.251734,61.265969-70.0708833,68.2292678-77.8787452l1.6041985-1.7987732.0206967,4.002397.0206967,4.002397-28.9816292,32.9976077c-15.9398961,18.1486777-28.9898906,33.1663386-29.000001,33.3726134-.0102078.2063613,13.0316335.3750057,28.9816292.3750057h29.000001v4.9866249l-35.0000713.1317927c-19.2500354.072579-34.943788-.0141871-34.8750045-.1907901l.0002163-.0001298ZM259.3755437,124.8905363l-21.7500089-24.820536-.1218877-4.2921073c-.0995041-3.5000536-.0084993-4.145349.5000077-3.4968096.34209.4373769,11.7032286,13.4227403,25.2469915,28.8562812,13.5437196,15.4335842,24.624988,28.1819197,24.624988,28.3297161,0,.1476666-1.5187516.2630663-3.3750085.2562323l-3.3749652-.0113324-21.750117-24.8214443ZM74.8755497,98.4257277v-44.8100724l17.3750067.2511284c18.3134078.2647532,21.6580524.6087896,25.6665697,2.6400924,3.0112702,1.5259317,6.1623998,5.1297931,7.4167226,8.4822666,2.0953392,5.6003021,2.5428158,15.9601494,1.0041244,23.2466797-.4589819,2.1735195-1.017468,3.1721074-2.6641628,4.7636976-2.0183268,1.9507652-4.930547,3.2362953-7.3312542,3.2362953-1.5730129,0-.7542287.6367745,2.2348093,1.7380457,3.1195763,1.1493688,5.9215873,3.6776948,7.3905977,6.668744,1.1252984,2.2912116,1.1548187,2.7453708,1.3303837,20.4682202l.1795443,18.1250182h-22.1023499v-18.0160632c0-22.0450177.0998285-21.6247258-5.2499939-22.1005116l-1.5000014-.1335228-.1306681,20.1250056-.1306681,20.1250056h-23.4886384l-.0000216-44.8100292ZM103.5244749,88.1358641c.4944064-.2534208,1.1131658-1.0243237,1.3749994-1.713002.6628129-1.7433226.6009608-13.3659055-.079067-14.8584024-.6728044-1.4766662-2.3991501-2.3286689-4.7183898-2.3286689h-1.7264754v9.6666706c0,5.3166472.1326145,9.7992418.2946628,9.9613118.3740542.3740542,3.6683521-.119898,4.8542915-.7279523l-.0000216.0000433ZM134.3755315,98.4758149v-44.8361541l17.6250105.232443c18.3303198.2417857,20.5826899.478035,25.1249957,2.6350317,2.6711049,1.268445,6.2874233,4.9547039,7.5819717,7.7286219.5774959,1.237519,1.3379747,3.6000119,1.6899048,5.2500372.8255101,3.870215.8674008,14.3765179.0683185,17.1022517-1.1133605,3.7973333-3.8671657,6.1481046-8.9977806,7.6809568l-2.1576671.6446466,2.9460659,1.0667551c4.4881311,1.6251114,6.5069336,3.0940353,8.1100724,5.9009555,2.1484109,3.7617358,2.661892,7.9217044,2.3822597,19.2994739-.2548266,10.3662055-.7440642,13.0953996-2.9161346,16.2653444-1.4126514,2.0616233-3.7071286,3.6395021-6.7914968,4.6704003-2.029205.6782543-5.7929088.8383346-23.5403693,1.0012697l-21.1249993.1939044-.0001514-44.8359379ZM162.9680544,127.1507785c.8062624-.305887,1.5552574-1.1195241,1.8750071-2.0367959.6698632-1.9215692.7035575-17.8630765.0413934-19.6045824-.5420931-1.4258869-1.6923053-1.992072-4.8839632-2.4041026l-2.1249893-.2743987v25.4501737l1.8749855-.3104719c1.0312658-.1706341,2.479147-.5397142,3.217545-.8199088l.0000216.0000865ZM164.1255332,87.6675178c.9132925-.8753594,1.0000153-1.6113136,1.0000153-8.4876733v-7.5292244l-1.4028978-1.2073714c-1.0282381-.8849617-1.9962892-1.2073714-3.6250123-1.2073714h-2.2221145v19.8532021l2.624997-.2315779c1.655778-.1459797,2.9942284-.5854328,3.6249907-1.1900269l.0000216.0000433ZM208.7570994,107.4859011l.1315332-35.7500287h-14.0131472v-18.0000163h51.0000245v18.0000163h-13.9999983v71.5000142l-11.6250051.0000433-11.6250051.0000433.131598-35.750072ZM134.8756905,24.2652055C146.4643845,11.0575637,156.1285248.138495,156.351517.0006901c.3444689-.2128925,41.9655435,46.6997207,42.4406806,47.8364164.0915671.2193805-1.3708255.398449-3.2500065.3981462l-3.416683-.0005623-17.7422485-20.2458119-17.7422918-20.2458119-1.0796013,1.121384c-.5937807.6167482-8.5679081,9.671342-17.7202758,20.1213723l-16.6406745,18.9999884-3.6975696.146542-3.6975696.146542,21.0704137-24.0136897Z"></path></g></svg>